<svg width="37" height="37" viewBox="0 0 37 37" fill="none" xmlns="http://www.w3.org/2000/svg">
<g clip-path="url(#clip0_1_365)">
<path d="M11.4 29C9.41998 29 7.79998 30.62 7.79998 32.6C7.79998 34.58 9.41998 36.2 11.4 36.2C13.38 36.2 15 34.58 15 32.6C15 30.62 13.38 29 11.4 29ZM0.599976 0.199997V3.8H4.19998L7.79998 17.48L8.15998 21.8C7.97998 22.34 7.79998 23.06 7.79998 23.6C7.79998 25.58 9.41998 27.2 11.4 27.2H33V23.6H12.12C11.94 23.6 11.76 23.42 11.76 23.24V23.0599L11.4 19.9999H31.8C33.24 19.9999 34.26 18.56 34.8 17.48L36.24 6.5C36.6 6.14 36.6 5.96 36.6 5.6C36.6 4.52 35.88 3.8 34.8 3.8H8.15998L6.53998 0.199997H0.599976ZM29.4 29C27.42 29 25.8 30.62 25.8 32.6C25.8 34.58 27.42 36.2 29.4 36.2C31.38 36.2 33 34.58 33 32.6C33 30.62 31.38 29 29.4 29Z" fill="white"/>
</g>
<defs>
<clipPath id="clip0_1_365">
<rect width="36" height="36" fill="white" transform="translate(0.599976 0.199997)"/>
</clipPath>
</defs>
</svg>
