<svg width="30" height="30" viewBox="0 0 30 30" fill="none" xmlns="http://www.w3.org/2000/svg">
<path d="M26.1262 6.39188L24.0787 4.34719C23.8673 4.13578 23.5894 4.02985 23.3119 4.02985C23.0344 4.02985 22.7569 4.13531 22.5455 4.34672L20.9077 5.97985L24.4884 9.55453L26.1262 7.92188C26.5495 7.49906 26.5495 6.81328 26.1262 6.39188Z" fill="white"/>
<path d="M10.2759 16.5919L13.8571 20.167L23.722 10.3205L20.1407 6.74532L10.2759 16.5919Z" fill="white"/>
<path d="M9.50293 17.3569L8.7384 21.6937L13.0842 20.9316L9.50293 17.3569Z" fill="white"/>
<path d="M19.4029 23.6264H5.90013V10.1236H15.4293L17.7778 7.77985H5.07185C4.23794 7.77985 3.55591 8.46188 3.55591 9.29578V24.4547C3.55591 25.2886 4.23794 25.9706 5.07185 25.9706H20.2308C21.0647 25.9706 21.7467 25.2886 21.7467 24.4547V13.6167L19.4029 15.9563V23.6264Z" fill="white"/>
</svg>
