<svg width="20" height="20" viewBox="0 0 20 20" fill="none" xmlns="http://www.w3.org/2000/svg">
<g clip-path="url(#clip0_1_97)">
<path d="M18.2391 4.97344C18.2022 4.92408 18.1561 4.88245 18.1031 4.85094C18.0502 4.81943 17.9916 4.79866 17.9307 4.78981C17.8697 4.78096 17.8076 4.7842 17.748 4.79935C17.6883 4.81451 17.6322 4.84128 17.5828 4.87813L10.0219 10.5219C9.99483 10.5422 9.96193 10.5531 9.92812 10.5531C9.89431 10.5531 9.86142 10.5422 9.83437 10.5219L2.42187 4.85313C2.37294 4.81578 2.31712 4.78844 2.25762 4.77267C2.19811 4.7569 2.13608 4.753 2.07507 4.76119C2.01406 4.76939 1.95526 4.78953 1.90203 4.82045C1.8488 4.85137 1.80219 4.89247 1.76484 4.94141C1.7275 4.99035 1.70016 5.04616 1.68438 5.10567C1.66861 5.16517 1.66471 5.2272 1.67291 5.28821C1.6811 5.34922 1.70124 5.40802 1.73216 5.46125C1.76308 5.51448 1.80418 5.5611 1.85312 5.59844L7.68125 10.0563L1.91719 14.4C1.86753 14.437 1.82565 14.4835 1.79395 14.5367C1.76225 14.5899 1.74134 14.6489 1.73242 14.7102C1.72349 14.7715 1.72673 14.8339 1.74195 14.894C1.75716 14.954 1.78405 15.0105 1.82109 15.0602C1.85813 15.1098 1.90458 15.1517 1.9578 15.1834C2.01102 15.2151 2.06997 15.236 2.13127 15.2449C2.19257 15.2539 2.25503 15.2506 2.31508 15.2354C2.37513 15.2202 2.43159 15.1933 2.48125 15.1563L8.45469 10.6469L9.26406 11.2719C9.45278 11.4163 9.68342 11.4954 9.92108 11.4971C10.1587 11.4988 10.3905 11.423 10.5812 11.2813L11.4312 10.6469L17.475 15.1563C17.5243 15.1931 17.5805 15.2198 17.6402 15.235C17.6998 15.2501 17.7619 15.2534 17.8229 15.2445C17.8838 15.2357 17.9424 15.2149 17.9953 15.1834C18.0482 15.1519 18.0944 15.1103 18.1312 15.0609C18.1681 15.0116 18.1948 14.9555 18.21 14.8958C18.2251 14.8361 18.2284 14.774 18.2195 14.7131C18.2107 14.6521 18.1899 14.5935 18.1584 14.5406C18.1269 14.4877 18.0853 14.4415 18.0359 14.4047L12.2141 10.0547L18.1437 5.625C18.2421 5.55074 18.3072 5.44072 18.3251 5.31878C18.3429 5.19683 18.312 5.07277 18.2391 4.97344Z" fill="white"/>
<path d="M17.6562 2.96875H2.34375C1.72215 2.96875 1.12601 3.21568 0.686468 3.65522C0.24693 4.09476 0 4.6909 0 5.3125L0 14.6875C0 15.3091 0.24693 15.9052 0.686468 16.3448C1.12601 16.7843 1.72215 17.0312 2.34375 17.0312H17.6562C18.2779 17.0312 18.874 16.7843 19.3135 16.3448C19.7531 15.9052 20 15.3091 20 14.6875V5.3125C20 4.6909 19.7531 4.09476 19.3135 3.65522C18.874 3.21568 18.2779 2.96875 17.6562 2.96875ZM19.0625 14.6875C19.0625 15.0605 18.9143 15.4181 18.6506 15.6819C18.3869 15.9456 18.0292 16.0938 17.6562 16.0938H2.34375C1.97079 16.0938 1.6131 15.9456 1.34938 15.6819C1.08566 15.4181 0.9375 15.0605 0.9375 14.6875V5.3125C0.9375 4.93954 1.08566 4.58185 1.34938 4.31813C1.6131 4.05441 1.97079 3.90625 2.34375 3.90625H17.6562C18.0292 3.90625 18.3869 4.05441 18.6506 4.31813C18.9143 4.58185 19.0625 4.93954 19.0625 5.3125V14.6875Z" fill="white"/>
</g>
<defs>
<clipPath id="clip0_1_97">
<rect width="20" height="20" fill="white"/>
</clipPath>
</defs>
</svg>
