<svg width="30" height="30" viewBox="0 0 30 30" fill="none" xmlns="http://www.w3.org/2000/svg">
<g clip-path="url(#clip0_1_472)">
<path d="M11.6616 0C5.2226 0 0.00170898 5.22089 0.00170898 11.6599C0.00170898 18.0989 5.22259 23.3198 11.6616 23.3198C14.1377 23.3198 16.4339 22.5475 18.3215 21.232L18.3228 21.2306L26.9703 29.8782C27.1308 30.0386 27.386 30.0427 27.5506 29.8782L29.8812 27.5475C30.0417 27.3871 30.0335 27.121 29.8799 26.9673L21.2336 18.3211C22.5492 16.4322 23.3215 14.1359 23.3215 11.6599C23.3215 5.22089 18.1006 0 11.6616 0ZM11.6616 20.5763C6.73696 20.5763 2.74517 16.5845 2.74517 11.6599C2.74517 6.7353 6.737 2.74351 11.6616 2.74351C16.5861 2.74351 20.5779 6.7353 20.5779 11.6599C20.5779 16.5845 16.5862 20.5763 11.6616 20.5763Z" fill="white"/>
</g>
<defs>
<clipPath id="clip0_1_472">
<rect width="30" height="30" fill="white"/>
</clipPath>
</defs>
</svg>
