<svg width="17" height="17" viewBox="0 0 17 17" fill="none" xmlns="http://www.w3.org/2000/svg">
<path d="M16.4015 13.7233L16.4016 13.7237C16.4612 13.9028 16.4692 14.157 16.406 14.4251C16.3428 14.6933 16.2221 14.9165 16.0893 15.0494L16.0893 15.0494L14.8842 16.2544C14.8843 16.2544 14.8843 16.2543 14.8843 16.2543C14.884 16.254 14.8634 16.2701 14.8081 16.2965C14.7472 16.3256 14.6717 16.3542 14.5917 16.3802C14.513 16.4057 14.4384 16.4259 14.3831 16.4395C14.3685 16.4431 14.3557 16.4461 14.345 16.4485C10.6826 16.4659 7.16044 15.0219 4.56824 12.4297C1.97209 9.83348 0.526306 6.30235 0.550294 2.63321C0.552377 2.62508 0.554714 2.61611 0.557299 2.6064C0.571335 2.55368 0.591826 2.48232 0.61758 2.40664C0.643793 2.3296 0.672593 2.25659 0.701791 2.19737C0.728974 2.14223 0.745488 2.12179 0.745186 2.12154C0.745145 2.12151 0.7448 2.12184 0.744136 2.1225L1.95298 0.912552C2.08582 0.779711 2.30909 0.659049 2.57727 0.595792C2.84502 0.532633 3.09889 0.540543 3.27798 0.599927C3.27822 0.600006 3.27846 0.600086 3.2787 0.600166L3.53201 0.685341L3.53335 0.685786C3.72278 0.748936 3.95339 0.90149 4.15992 1.1196C4.36647 1.33774 4.50594 1.57607 4.55833 1.76828L5.16729 4.00257C5.1673 4.00262 5.16731 4.00267 5.16733 4.00272C5.16733 4.00275 5.16734 4.00278 5.16735 4.00281C5.21856 4.19127 5.21616 4.45795 5.14372 4.73655C5.07115 5.01565 4.94411 5.24601 4.80919 5.38092L4.00084 6.18928L3.77583 6.41429L3.85875 6.72151C4.70249 9.8476 7.15368 12.2988 10.2802 13.1436L10.5875 13.2266L10.8125 13.0015L11.6208 12.1932C11.7556 12.0585 11.9862 11.9314 12.2657 11.8587C12.5447 11.7863 12.8116 11.7839 13 11.8351C13.0001 11.8351 13.0002 11.8351 13.0003 11.8351L15.2332 12.4451L15.2342 12.4454C15.4256 12.4973 15.6635 12.6362 15.8819 12.8425C16.0997 13.0484 16.253 13.2791 16.3173 13.4697C16.3174 13.4699 16.3175 13.4702 16.3176 13.4705L16.4015 13.7233ZM14.4006 16.4481L14.396 16.4482L14.4006 16.4481Z" stroke="white" stroke-width="1.1"/>
</svg>
